<svg id="Ebene_1" data-name="Ebene 1" xmlns="http://www.w3.org/2000/svg" viewBox="0 0 400 96">
  <defs>
    <style>
      .cls-1 {
        fill: #0d194d;
      }
    </style>
  </defs>
  <path class="cls-1" d="M15.6,71v5.8H0V3.39H16.82V31.26c3.25-3.33,8.53-5.52,15.19-5.52,14.21,0,24.61,10.47,24.61,26.15S46.22,78.05,32,78.05C25.51,78.05,19.82,76,15.6,71Zm12.67-6.6c6.66,0,12.27-4.79,12.27-12.51S34.93,39.38,28.27,39.38,16,44.18,16,51.89,21.61,64.4,28.27,64.4ZM91.39,25.74c15.76,0,28.35,10.47,28.35,26.15S107.15,78.05,91.39,78.05,63,67.57,63,51.89,75.63,25.74,91.39,25.74Zm0,38.66c6.66,0,12.27-4.79,12.27-12.51S98.05,39.38,91.39,39.38s-12.27,4.8-12.27,12.51S84.73,64.4,91.39,64.4Zm32.17-37.61h6.9V23.54c0-12.59,7.8-20.15,21.69-20.15h6.43V17h-5.45c-4.06,0-5.93,1.95-5.93,6.09v3.74h11.38V39.55H147.2V96H130.46V39.55h-6.9Zm41.35,0h14.38V38.9c1.13-8,7.15-13.16,14.62-13.16h1.79V41.33h-.57c-10.81,0-14.46,3.9-14.46,14.14V76.8H164.91Zm62-1.05c15.92,0,28.6,10.56,28.6,26.32s-12.68,26-28.52,26-28.43-10.32-28.43-26,12.57-26.32,28.33-26.32ZM227,64.4c6.66,0,12.19-4.71,12.19-12.34S233.63,39.38,227,39.38s-12.18,5.12-12.18,12.68S220.31,64.4,227,64.4Zm39.24-3.9c4.71,2.85,10.15,4.88,14.7,4.88,3,0,4.63-1,4.63-3,0-7.31-24-2.6-24-20,0-10,7.88-16.65,19.74-16.65,6.82,0,12.59,2.27,18.2,5.28L294,42.23a26.84,26.84,0,0,0-12.59-3.82c-2.92,0-4.87,1.05-4.87,2.92,0,6.75,24,2.6,24,20.55,0,10-6.9,16.17-19.5,16.17a41.43,41.43,0,0,1-20.63-6Zm41.84-50.32h15.76V26.79h13V39.55h-13V56.08c0,5.2,2.76,7.15,8,7.15h5V76.8h-6.5C315.59,76.8,308,71.68,308,58Zm50.76,38.2L367,50.12l7.55-12,7.55,12,8.17-1.74,4.18-7.23L385.4,30.27l13.73-3.48.87-8.31-5.58-6.2-13.16,5.25.93-14.14L374.56,0l-7.63,3.39.93,14.14L354.7,12.28l-5.58,6.2.87,8.31,13.73,3.48-9.06,10.88Z"/>
</svg>
