<?xml version="1.0" encoding="UTF-8" standalone="no"?>
<svg
   fill="none"
   viewBox="0 2.05 31.3 27.97"
   version="1.1"
   id="svg13"
   sodipodi:docname="markup-cropped(14).svg"
   inkscape:version="1.3.2 (091e20e, 2023-11-25, custom)"
   xmlns:inkscape="http://www.inkscape.org/namespaces/inkscape"
   xmlns:sodipodi="http://sodipodi.sourceforge.net/DTD/sodipodi-0.dtd"
   xmlns="http://www.w3.org/2000/svg"
   xmlns:svg="http://www.w3.org/2000/svg">
  <sodipodi:namedview
     id="namedview13"
     pagecolor="#505050"
     bordercolor="#eeeeee"
     borderopacity="1"
     inkscape:showpageshadow="0"
     inkscape:pageopacity="0"
     inkscape:pagecheckerboard="0"
     inkscape:deskcolor="#505050"
     inkscape:zoom="4.1428571"
     inkscape:cx="87.62069"
     inkscape:cy="13.87931"
     inkscape:window-width="1920"
     inkscape:window-height="1001"
     inkscape:window-x="-9"
     inkscape:window-y="-9"
     inkscape:window-maximized="1"
     inkscape:current-layer="g13" />
  <g
     clip-path="url(#clip0_9299_37245)"
     id="g13">
    <path
       d="M5.23317 5.70035C4.79254 5.52837 4.34098 5.44238 3.88056 5.44238C3.02738 5.44238 2.14376 5.73729 1.23886 6.32562C0.108189 7.06082 -0.310864 8.47713 0.242653 9.6934C0.660228 10.6112 1.28674 11.2985 2.10446 11.7365C3.16539 12.3053 4.54755 12.4347 6.17767 12.1174C7.05981 11.946 7.79034 11.3414 8.13197 10.5007C8.47389 9.65882 8.37134 8.7156 7.85831 7.97686C7.0669 6.83713 6.18358 6.07149 5.23317 5.70035Z"
       fill="#00652d"
       style="fill:#00652d;fill-opacity:1"
       data-darkreader-inline-fill=""
       id="path10" />
    <path
       d="M18.287 5.6945C18.0051 6.52869 18.165 7.44355 18.715 8.1424C19.1686 8.71832 19.8427 9.0803 20.5647 9.13527C20.7062 9.1459 20.8501 9.14502 20.992 9.13231C22.6191 8.98722 23.8739 8.49404 24.7215 7.66724C25.3719 7.03281 25.7745 6.21576 25.9178 5.23885C26.1078 3.94516 25.3291 2.72683 24.066 2.34209C23.4898 2.16657 22.9457 2.0791 22.4359 2.0791C21.5683 2.0791 20.799 2.33264 20.1379 2.83882C19.345 3.44636 18.7221 4.40732 18.287 5.6945Z"
       fill="#00652d"
       style="fill:#00652d;fill-opacity:1"
       data-darkreader-inline-fill=""
       id="path11" />
    <path
       d="M20.487 24.4462C18.2785 26.192 16.826 25.4124 16.8112 25.3997C16.8095 25.4027 16.7099 25.58 16.6989 25.5995C16.5042 25.947 16.2896 26.2762 16.0568 26.5859C16.769 27.4833 18.3861 28.4575 20.3091 28.5335C21.5532 28.5453 23.0826 28.4889 23.5084 27.4673C23.5149 27.4514 23.5214 27.4357 23.5279 27.4198C24.3799 25.2922 23.2345 22.4743 20.487 24.4462Z"
       fill="#EE2F24"
       style="--darkreader-inline-fill: #ef4036;"
       data-darkreader-inline-fill=""
       id="path12" />
    <path
       d="M31.0608 19.505C30.7969 19.006 30.2661 18.6912 29.7821 18.4492C29.2439 18.1803 28.5568 18.1821 27.8966 18.4549C27.1779 18.7515 26.6191 19.3085 26.4022 19.945C26.3652 20.039 25.5188 22.1243 23.1313 22.7526C21.7545 23.1157 20.5082 22.5726 19.322 21.0933C18.9458 20.6244 18.6157 20.0742 18.3409 19.4575L18.3027 19.3721C18.3027 19.3721 18.6293 19.0816 18.7442 18.9604C19.8649 17.93 20.57 16.0061 19.8211 14.5596C19.3241 13.5995 18.3819 13.4237 17.6168 13.3779C16.5843 13.3159 15.6782 13.45 14.7635 13.8005L14.5836 13.8543C13.413 14.1536 12.2953 14.4591 11.4764 14.9045L11.4622 14.911C11.2096 15.0097 11.068 15.1089 10.8266 15.3078C10.7122 15.3962 10.4601 15.6405 10.4051 15.7014C10.2476 15.8775 10.1347 16.0386 10.0505 16.2085C9.70564 16.7631 9.96599 17.5415 10.0934 17.8512C10.3765 18.5379 10.7471 19.0172 11.2264 19.3162L11.2427 19.3283C11.4554 19.5151 11.6921 19.6779 11.9463 19.8124C12.0988 19.906 12.2519 19.982 12.4085 20.0423C12.6431 20.1551 12.8828 20.25 13.1305 20.3286L13.2227 20.3578L13.2176 20.4542C13.1831 21.1084 13.0779 21.721 12.9047 22.2756C12.2832 24.2705 11.6608 24.7297 10.4122 25.0583C7.95199 25.7057 6.62361 24.4585 5.98558 23.8589C5.8718 23.7522 5.78669 23.6724 5.71133 23.6172C5.04729 23.1293 4.32621 22.6633 3.63645 22.6633C3.17544 22.6633 2.7286 22.8716 2.32196 23.4207C1.62984 24.3556 1.20133 25.7244 2.07402 26.7621C2.18484 26.8945 4.83569 30.0005 9.03243 30.0002C9.57147 30.0002 10.1206 29.9479 10.6643 29.8451C10.7447 29.8297 10.8269 29.8131 10.9114 29.7951C13.066 29.3265 14.8229 28.2257 16.0565 26.586C16.2896 26.2764 16.5039 25.9472 16.6986 25.5997C16.7096 25.5802 16.8092 25.4029 16.8109 25.3999C16.8254 25.4126 18.2782 26.1921 20.4867 24.4463C23.2344 22.4745 24.3796 25.2923 23.5276 27.4199C23.6606 27.404 24.0921 27.3363 24.1736 27.3209C26.2769 26.9232 28.1198 25.7861 29.5028 24.0326C30.5247 22.7372 30.9645 21.5422 31.0425 21.3156C31.3052 20.5529 31.3108 19.9775 31.0608 19.505Z"
       fill="#00652d"
       style="fill:#00652d;fill-opacity:1"
       data-darkreader-inline-fill=""
       id="path13" />
  </g>
  <defs
     id="defs13">
    <clipPath
       id="clip0_9299_37245">
      <rect
         width="175"
         height="30"
         fill="white"
         style="--darkreader-inline-fill: #e8e6e3;"
         data-darkreader-inline-fill=""
         id="rect13" />
    </clipPath>
  </defs>
</svg>
