<?xml version="1.0" encoding="UTF-8" standalone="no"?>
<!-- Created with Inkscape (http://www.inkscape.org/) -->

<svg xmlns="http://www.w3.org/2000/svg" version="1.1" width="183.77" height="183.77" viewBox="919 0 183.77 183.77">
<defs id="defs6">
  <clipPath clipPathUnits="userSpaceOnUse" id="clipPath66">
    <path d="m 4645.49,1409.03 816.73,0 0,-817.108 -816.73,0 0,817.108 z" id="path68" />
  </clipPath>
</defs>
<g id="g2" transform="matrix(0.2,0,0,-0.2,-0.623438,292.03621)">
  <path d="m 4645.49,591.922 816.734,0 0,817.109 -816.734,0 0,-817.109 z" style="fill:#c40070;stroke:none" id="path60" />
  <g id="g6" style="fill:#f7911a;stroke:none" clip-path="url(#clipPath66)">
    <path d="m 4516.08,519.168 1004.1,1004.092 56.01,-55.96 -1004.1,-1004.093 -56.01,55.961" id="path70" />
    <path d="m 4432.13,603.031 1004.1,1004.099 56.02,-55.97 -1004.1,-1004.094 -56.02,55.965" id="path72" />
    <path d="M 4348.2,686.891 5352.29,1690.99 5408.3,1635.02 4404.21,630.93 4348.2,686.891" id="path74" />
    <path d="m 4264.25,770.754 1004.1,1004.096 56.01,-55.96 -1004.09,-1004.097 -56.02,55.961" id="path76" />
    <path d="M 6204.78,29.8555 5199.72,1033.95 5255.74,1089.98 6260.79,85.8789 6204.78,29.8555" id="path78" />
    <path d="M 6120.84,-54.0938 5115.78,950 5171.8,1006.02 6176.85,1.92578 6120.84,-54.0938" id="path80" />
    <path d="M 6036.89,-138.047 5031.84,866.051 5087.85,922.074 6092.91,-82.0273 6036.89,-138.047" id="path82" />
    <path d="M 5952.95,-222 4947.89,782.098 5003.91,838.121 6008.96,-165.977 5952.95,-222" id="path84" />
  </g>
</g>
</svg>
