<?xml version="1.0" encoding="UTF-8" standalone="no"?>
<!-- Created with Inkscape (http://www.inkscape.org/) -->
<svg
   xmlns:svg="http://www.w3.org/2000/svg"
   xmlns="http://www.w3.org/2000/svg"
   version="1.0"
   viewBox="0 0 140 140"
   id="svg6634">
  <defs
     id="defs6636" />
  <g
     transform="translate(-13.571427,-96.075092)"
     id="logo+schrift">
    <g
       id="logo">
      <path
         d="M 14.859551,97.476046 L 48.262287,97.476046 C 59.105625,97.403213 66.274859,99.132762 74.183587,106.3107 C 79.032427,110.71534 81.300867,114.1185 83.492752,120.29272 C 85.932217,114.08321 88.319722,110.69596 93.349266,106.3107 C 101.24582,99.425324 108.57289,97.768619 118.72198,97.476046 L 152.05188,97.476046 L 152.05188,130.88003 C 152.56418,141.57646 150.76057,149.65744 143.1797,157.60247 C 138.90853,162.0797 135.65352,164.14555 129.78281,166.10677 C 135.67167,168.18356 138.91948,170.30759 143.1797,174.86982 C 150.61242,182.82454 152.38099,189.94679 152.05188,201.33748 L 152.05188,234.55678 L 118.72198,234.55678 C 108.20774,234.66739 100.9448,232.80063 92.984119,225.79495 C 88.168093,221.55785 85.879018,218.316 83.492752,212.36152 C 81.482826,218.26032 79.379429,221.52653 74.840058,225.79495 C 66.890316,233.27391 59.105625,235.21474 48.262287,234.55678 L 14.859551,234.55678 L 14.859551,201.33748 C 14.566985,191.22469 16.647261,183.5091 23.731734,175.60062 C 28.120472,170.69958 31.506731,168.39485 37.67622,166.10677 C 31.525125,163.938 28.128924,161.68895 23.731734,156.87167 C 16.507813,148.96195 14.932381,141.39426 14.859551,130.88003 L 14.859551,97.476046 L 14.859551,97.476046 z "
         style="fill:#f16426;fill-rule:nonzero;stroke:none"
         id="logo_orange" />
      <path
         d="M 29.08169,111.73473 L 50.701746,111.73473 C 61.289057,111.83664 67.561453,112.74342 75.068245,119.2696 C 79.266583,122.91786 81.281233,125.68642 83.451489,130.8072 C 85.783068,125.66206 87.870561,122.89002 92.207343,119.2696 C 99.736009,112.98379 106.59577,111.49685 116.2,111.73473 L 137.85261,111.73473 L 137.85261,133.45421 C 137.65003,141.87127 137.32962,148.01043 132.3217,155.17494 C 128.41494,160.7665 125.02122,163.53134 118.74633,166.2052 C 125.00556,168.81095 128.41121,171.52731 132.3217,177.06668 C 137.39997,184.25928 137.82005,190.23315 137.85261,198.95618 L 137.85261,220.57476 L 116.2,220.57476 C 106.25723,220.94861 99.784485,219.31028 92.273955,213.04137 C 87.925237,209.40878 85.814638,206.6499 83.451489,201.50129 C 81.319013,206.62082 79.31754,209.39535 75.136353,213.04137 C 67.62459,219.58818 60.950257,220.43779 50.701746,220.50689 L 29.15104,220.50689 L 29.15104,198.95618 C 29.049127,189.55456 30.208205,184.44124 35.258386,177.23546 C 39.057271,171.81492 42.213106,169.12166 48.155403,166.2052 C 42.239703,163.43316 39.081631,160.81373 35.258386,155.51598 C 30.015067,148.24707 28.946965,142.1432 29.049127,133.3876 L 29.08169,111.73473 L 29.08169,111.73473 z "
         style="fill:#ffffff;fill-rule:nonzero;stroke:none"
         id="logo_weiss" />
      <path
         d="M 72.891027,181.97493 C 77.643919,192.66912 78.277523,192.51004 79.544482,192.66912 C 82.079885,192.98456 84.930979,183.95578 86.6727,180.31225 C 88.574503,176.27176 91.108915,169.30138 93.565275,169.30138 C 96.337573,169.30138 94.753691,182.92545 94.435521,184.27146 C 93.880965,186.80686 90.317475,187.28263 90.317475,190.05592 C 90.317475,195.12449 101.16926,194.80757 104.41731,194.80757 C 107.90176,194.80757 118.75479,195.04545 118.75479,189.73799 C 118.75479,186.1745 114.0019,187.44172 113.76402,181.65825 C 113.44733,174.29215 112.97282,165.57781 112.97282,164.39064 C 112.97282,160.82591 113.52738,151.47797 114.16098,149.26048 C 114.95217,146.56847 118.51566,145.93363 118.51566,142.76462 C 118.51566,137.77509 110.59625,137.53721 107.11057,137.53721 C 96.654244,137.53721 96.575448,139.91354 92.534958,147.35992 C 89.683865,152.58733 86.436065,162.17191 83.980697,161.61735 C 80.494763,160.82591 75.584274,147.83568 72.811981,143.16034 C 70.43566,139.12233 70.594496,137.53721 61.32659,137.53721 C 54.988572,137.53721 47.62247,138.64657 47.62247,143.16034 C 47.62247,146.40939 52.137482,146.9642 52.928927,148.62688 C 53.800411,150.44988 54.118331,152.90401 54.118331,157.65815 C 54.118331,169.14354 53.404689,176.51088 52.769842,183.16334 C 52.137482,189.66019 47.385833,185.93663 47.385833,190.45164 C 47.385833,194.56969 54.59285,194.80757 57.365142,194.80757 C 60.455107,194.80757 68.930573,194.64873 68.930573,190.13372 C 68.930573,185.85658 63.860754,189.81679 63.860754,181.34257 C 63.860754,178.72836 63.068315,168.27205 65.523682,168.27205 C 66.949725,168.27205 67.821208,170.64862 68.295727,171.67795 L 72.891027,181.97493 L 72.891027,181.97493 z "
         style="fill:#282526;fill-rule:nonzero;stroke:none"
         id="logo_m" />
    </g>
  </g>
</svg>
