<?xml version="1.0" encoding="UTF-8" standalone="no"?>
<!-- Created with Inkscape (http://www.inkscape.org/) -->
<svg
   xmlns:svg="http://www.w3.org/2000/svg"
   xmlns="http://www.w3.org/2000/svg"
   version="1.0"
   width="24.09"
   height="24.09"
   viewBox="16 0 24.09 24.09"
   id="svg3036">
  <defs
     id="defs3038" />
  <g
     transform="translate(-452.68196,-519.46191)"
     id="layer1">
    <path
       d="M 474.11321,527.21441 C 473.35821,528.46691 472.92321,529.93566 472.92321,531.50441 C 472.92321,535.51191 475.75446,538.85566 479.52446,539.64941 L 475.67321,535.84816 L 476.50196,534.14816 C 475.90446,533.70941 475.51946,533.00816 475.51946,532.21941 C 475.51946,531.65816 475.63696,531.12191 475.96321,530.71191 L 475.12071,530.71191 L 475.12071,534.67941 C 474.60571,534.67941 474.19071,534.26191 474.19071,533.74691 L 474.19071,530.73566 C 474.19071,530.22066 474.60821,529.80941 475.12446,529.80941 L 483.26196,529.80941 L 482.14196,527.22191 L 474.11321,527.21441 z M 486.20571,531.74191 L 487.69821,531.74191 C 488.56946,531.86566 488.69321,532.15691 488.56946,532.98566 L 487.65696,534.97691 L 486.62071,534.52066 L 487.28446,533.02691 L 486.57821,533.02566 L 485.70821,534.97691 L 484.67196,534.52066 L 485.29321,533.02691 L 481.81071,533.02566 L 480.31821,536.01316 L 483.77946,539.43566 C 487.13696,538.36441 489.56946,535.21941 489.56946,531.50441 C 489.56946,530.09441 489.21821,528.76566 488.59946,527.60066 C 488.23821,527.09691 486.20571,527.22191 486.20571,527.22191 L 486.20571,531.74191 z M 481.52071,539.82941 L 477.62196,536.01316 L 479.08071,533.02566 L 479.61321,533.02566 L 478.36821,535.72316 L 482.35571,539.75441 C 482.05446,539.79441 481.74821,539.81941 481.43821,539.82566 L 481.52071,539.82941 z M 484.83696,525.90066 L 487.44946,525.90066 C 485.92571,524.19191 483.71571,523.18191 481.24696,523.18191 C 478.81071,523.18191 476.61946,524.23316 475.09696,525.90066 L 483.51071,525.90066 L 484.06571,524.80441 C 484.20196,524.51066 484.55196,524.38316 484.84571,524.51941 C 485.14071,524.65691 485.26821,525.00691 485.13071,525.30066 L 484.83696,525.89441 L 484.83696,525.90066 z M 471.26571,531.50441 C 471.26571,525.99316 475.73446,521.52441 481.24696,521.52441 C 486.75821,521.52441 491.22696,525.99316 491.22696,531.50441 C 491.22696,537.01691 486.75821,541.48566 481.24696,541.48566 C 475.73446,541.48566 471.26571,537.01691 471.26571,531.50441 z"
       id="path3020"
       style="fill:#da1f3d;fill-opacity:1;fill-rule:evenodd;stroke:#da1f3d;stroke-width:0.0775;stroke-linecap:butt;stroke-linejoin:miter;stroke-miterlimit:3.86400008;stroke-dasharray:none;stroke-opacity:1" />
  </g>
</svg>
